<?xml version="1.0" encoding="UTF-8"?>
<!DOCTYPE svg PUBLIC "-//W3C//DTD SVG 1.1//EN"
    "http://www.w3.org/Graphics/SVG/1.1/DTD/svg11.dtd"><svg width="400.0000" stroke-opacity="1" stroke="rgb(0,0,0)" xmlns:xlink="http://www.w3.org/1999/xlink" xmlns="http://www.w3.org/2000/svg" viewBox="0.0 0.0 400.0 2400.0" font-size="1" height="2400.0000" version="1.1"><defs></defs><g stroke-opacity="1.0" fill="rgb(0,0,0)" stroke="rgb(0,0,0)" stroke-linejoin="miter" stroke-linecap="butt" stroke-width="3.919183588453085" stroke-miterlimit="10.0" fill-opacity="1.0"><path d="M 339.3939,351.5152 c 0.0000,-26.7774 -21.7074,-48.4848 -48.4848 -48.4848c -26.7774,-0.0000 -48.4848,21.7074 -48.4848 48.4848c -0.0000,26.7774 21.7074,48.4848 48.4848 48.4848c 26.7774,0.0000 48.4848,-21.7074 48.4848 -48.4848Z"/></g><g stroke-opacity="1.0" fill="rgb(0,0,0)" stroke="rgb(0,0,0)" stroke-linejoin="miter" stroke-linecap="butt" stroke-width="3.919183588453085" stroke-miterlimit="10.0" fill-opacity="1.0"><path d="M 339.3939,48.4848 c 0.0000,-26.7774 -21.7074,-48.4848 -48.4848 -48.4848c -26.7774,-0.0000 -48.4848,21.7074 -48.4848 48.4848c -0.0000,26.7774 21.7074,48.4848 48.4848 48.4848c 26.7774,0.0000 48.4848,-21.7074 48.4848 -48.4848Z"/></g><g stroke-opacity="1.0" fill="rgb(0,0,0)" stroke="rgb(0,0,0)" stroke-linejoin="miter" stroke-linecap="butt" stroke-width="3.919183588453085" stroke-miterlimit="10.0" fill-opacity="1.0"><path d="M 96.9697,2048.4848 c 0.0000,-26.7774 -21.7074,-48.4848 -48.4848 -48.4848c -26.7774,-0.0000 -48.4848,21.7074 -48.4848 48.4848c -0.0000,26.7774 21.7074,48.4848 48.4848 48.4848c 26.7774,0.0000 48.4848,-21.7074 48.4848 -48.4848Z"/></g><g stroke-opacity="1.0" fill="rgb(0,0,0)" stroke="rgb(0,0,0)" stroke-linejoin="miter" stroke-linecap="butt" stroke-width="3.919183588453085" stroke-miterlimit="10.0" fill-opacity="1.0"><path d="M 157.5758,1139.3939 c 0.0000,-26.7774 -21.7074,-48.4848 -48.4848 -48.4848c -26.7774,-0.0000 -48.4848,21.7074 -48.4848 48.4848c -0.0000,26.7774 21.7074,48.4848 48.4848 48.4848c 26.7774,0.0000 48.4848,-21.7074 48.4848 -48.4848Z"/></g><g stroke-opacity="1.0" fill="rgb(0,0,0)" stroke="rgb(0,0,0)" stroke-linejoin="miter" stroke-linecap="butt" stroke-width="3.919183588453085" stroke-miterlimit="10.0" fill-opacity="1.0"><path d="M 400.0000,1866.6667 c 0.0000,-26.7774 -21.7074,-48.4848 -48.4848 -48.4848c -26.7774,-0.0000 -48.4848,21.7074 -48.4848 48.4848c -0.0000,26.7774 21.7074,48.4848 48.4848 48.4848c 26.7774,0.0000 48.4848,-21.7074 48.4848 -48.4848Z"/></g><g stroke-opacity="1.0" fill="rgb(0,0,0)" stroke="rgb(0,0,0)" stroke-linejoin="miter" stroke-linecap="butt" stroke-width="3.919183588453085" stroke-miterlimit="10.0" fill-opacity="1.0"><path d="M 157.5758,1442.4242 c 0.0000,-26.7774 -21.7074,-48.4848 -48.4848 -48.4848c -26.7774,-0.0000 -48.4848,21.7074 -48.4848 48.4848c -0.0000,26.7774 21.7074,48.4848 48.4848 48.4848c 26.7774,0.0000 48.4848,-21.7074 48.4848 -48.4848Z"/></g><g stroke-opacity="1.0" fill="rgb(0,0,0)" stroke="rgb(0,0,0)" stroke-linejoin="miter" stroke-linecap="butt" stroke-width="3.919183588453085" stroke-miterlimit="10.0" fill-opacity="1.0"><path d="M 157.5758,1563.6364 c 0.0000,-26.7774 -21.7074,-48.4848 -48.4848 -48.4848c -26.7774,-0.0000 -48.4848,21.7074 -48.4848 48.4848c -0.0000,26.7774 21.7074,48.4848 48.4848 48.4848c 26.7774,0.0000 48.4848,-21.7074 48.4848 -48.4848Z"/></g><g stroke-opacity="1.0" fill="rgb(0,0,0)" stroke="rgb(0,0,0)" stroke-linejoin="miter" stroke-linecap="butt" stroke-width="3.919183588453085" stroke-miterlimit="10.0" fill-opacity="1.0"><path d="M 339.3939,2351.5152 c 0.0000,-26.7774 -21.7074,-48.4848 -48.4848 -48.4848c -26.7774,-0.0000 -48.4848,21.7074 -48.4848 48.4848c -0.0000,26.7774 21.7074,48.4848 48.4848 48.4848c 26.7774,0.0000 48.4848,-21.7074 48.4848 -48.4848Z"/></g><g stroke-opacity="1.0" fill="rgb(0,0,0)" stroke="rgb(0,0,0)" stroke-linejoin="miter" stroke-linecap="butt" stroke-width="3.919183588453085" stroke-miterlimit="10.0" fill-opacity="1.0"><path d="M 96.9697,1321.2121 c 0.0000,-26.7774 -21.7074,-48.4848 -48.4848 -48.4848c -26.7774,-0.0000 -48.4848,21.7074 -48.4848 48.4848c -0.0000,26.7774 21.7074,48.4848 48.4848 48.4848c 26.7774,0.0000 48.4848,-21.7074 48.4848 -48.4848Z"/></g><g stroke-opacity="1.0" fill="rgb(0,0,0)" stroke="rgb(0,0,0)" stroke-linejoin="miter" stroke-linecap="butt" stroke-width="3.919183588453085" stroke-miterlimit="10.0" fill-opacity="1.0"><path d="M 96.9697,230.3030 c 0.0000,-26.7774 -21.7074,-48.4848 -48.4848 -48.4848c -26.7774,-0.0000 -48.4848,21.7074 -48.4848 48.4848c -0.0000,26.7774 21.7074,48.4848 48.4848 48.4848c 26.7774,0.0000 48.4848,-21.7074 48.4848 -48.4848Z"/></g><g stroke-opacity="1.0" fill="rgb(0,0,0)" stroke="rgb(0,0,0)" stroke-linejoin="miter" stroke-linecap="butt" stroke-width="3.919183588453085" stroke-miterlimit="10.0" fill-opacity="1.0"><path d="M 339.3939,1745.4545 c 0.0000,-26.7774 -21.7074,-48.4848 -48.4848 -48.4848c -26.7774,-0.0000 -48.4848,21.7074 -48.4848 48.4848c -0.0000,26.7774 21.7074,48.4848 48.4848 48.4848c 26.7774,0.0000 48.4848,-21.7074 48.4848 -48.4848Z"/></g><g stroke-opacity="1.0" fill="rgb(0,0,0)" stroke="rgb(0,0,0)" stroke-linejoin="miter" stroke-linecap="butt" stroke-width="3.919183588453085" stroke-miterlimit="10.0" fill-opacity="1.0"><path d="M 278.7879,1078.7879 c 0.0000,-26.7774 -21.7074,-48.4848 -48.4848 -48.4848c -26.7774,-0.0000 -48.4848,21.7074 -48.4848 48.4848c -0.0000,26.7774 21.7074,48.4848 48.4848 48.4848c 26.7774,0.0000 48.4848,-21.7074 48.4848 -48.4848Z"/></g><g stroke-opacity="1.0" fill="rgb(0,0,0)" stroke="rgb(0,0,0)" stroke-linejoin="miter" stroke-linecap="butt" stroke-width="3.919183588453085" stroke-miterlimit="10.0" fill-opacity="1.0"><path d="M 157.5758,533.3333 c 0.0000,-26.7774 -21.7074,-48.4848 -48.4848 -48.4848c -26.7774,-0.0000 -48.4848,21.7074 -48.4848 48.4848c -0.0000,26.7774 21.7074,48.4848 48.4848 48.4848c 26.7774,0.0000 48.4848,-21.7074 48.4848 -48.4848Z"/></g><g stroke-opacity="1.0" fill="rgb(0,0,0)" stroke="rgb(0,0,0)" stroke-linejoin="miter" stroke-linecap="butt" stroke-width="3.919183588453085" stroke-miterlimit="10.0" fill-opacity="1.0"><path d="M 278.7879,1381.8182 c 0.0000,-26.7774 -21.7074,-48.4848 -48.4848 -48.4848c -26.7774,-0.0000 -48.4848,21.7074 -48.4848 48.4848c -0.0000,26.7774 21.7074,48.4848 48.4848 48.4848c 26.7774,0.0000 48.4848,-21.7074 48.4848 -48.4848Z"/></g><g stroke-opacity="1.0" fill="rgb(0,0,0)" stroke="rgb(0,0,0)" stroke-linejoin="miter" stroke-linecap="butt" stroke-width="3.919183588453085" stroke-miterlimit="10.0" fill-opacity="1.0"><path d="M 400.0000,472.7273 c 0.0000,-26.7774 -21.7074,-48.4848 -48.4848 -48.4848c -26.7774,-0.0000 -48.4848,21.7074 -48.4848 48.4848c -0.0000,26.7774 21.7074,48.4848 48.4848 48.4848c 26.7774,0.0000 48.4848,-21.7074 48.4848 -48.4848Z"/></g><g stroke-opacity="1.0" fill="rgb(0,0,0)" stroke="rgb(0,0,0)" stroke-linejoin="miter" stroke-linecap="butt" stroke-width="3.919183588453085" stroke-miterlimit="10.0" fill-opacity="1.0"><path d="M 96.9697,1442.4242 c 0.0000,-26.7774 -21.7074,-48.4848 -48.4848 -48.4848c -26.7774,-0.0000 -48.4848,21.7074 -48.4848 48.4848c -0.0000,26.7774 21.7074,48.4848 48.4848 48.4848c 26.7774,0.0000 48.4848,-21.7074 48.4848 -48.4848Z"/></g><g stroke-opacity="1.0" fill="rgb(0,0,0)" stroke="rgb(0,0,0)" stroke-linejoin="miter" stroke-linecap="butt" stroke-width="3.919183588453085" stroke-miterlimit="10.0" fill-opacity="1.0"><path d="M 400.0000,1139.3939 c 0.0000,-26.7774 -21.7074,-48.4848 -48.4848 -48.4848c -26.7774,-0.0000 -48.4848,21.7074 -48.4848 48.4848c -0.0000,26.7774 21.7074,48.4848 48.4848 48.4848c 26.7774,0.0000 48.4848,-21.7074 48.4848 -48.4848Z"/></g><g stroke-opacity="1.0" fill="rgb(0,0,0)" stroke="rgb(0,0,0)" stroke-linejoin="miter" stroke-linecap="butt" stroke-width="3.919183588453085" stroke-miterlimit="10.0" fill-opacity="1.0"><path d="M 157.5758,48.4848 c 0.0000,-26.7774 -21.7074,-48.4848 -48.4848 -48.4848c -26.7774,-0.0000 -48.4848,21.7074 -48.4848 48.4848c -0.0000,26.7774 21.7074,48.4848 48.4848 48.4848c 26.7774,0.0000 48.4848,-21.7074 48.4848 -48.4848Z"/></g><g stroke-opacity="1.0" fill="rgb(0,0,0)" stroke="rgb(0,0,0)" stroke-linejoin="miter" stroke-linecap="butt" stroke-width="3.919183588453085" stroke-miterlimit="10.0" fill-opacity="1.0"><path d="M 96.9697,1684.8485 c 0.0000,-26.7774 -21.7074,-48.4848 -48.4848 -48.4848c -26.7774,-0.0000 -48.4848,21.7074 -48.4848 48.4848c -0.0000,26.7774 21.7074,48.4848 48.4848 48.4848c 26.7774,0.0000 48.4848,-21.7074 48.4848 -48.4848Z"/></g><g stroke-opacity="1.0" fill="rgb(0,0,0)" stroke="rgb(0,0,0)" stroke-linejoin="miter" stroke-linecap="butt" stroke-width="3.919183588453085" stroke-miterlimit="10.0" fill-opacity="1.0"><path d="M 400.0000,775.7576 c 0.0000,-26.7774 -21.7074,-48.4848 -48.4848 -48.4848c -26.7774,-0.0000 -48.4848,21.7074 -48.4848 48.4848c -0.0000,26.7774 21.7074,48.4848 48.4848 48.4848c 26.7774,0.0000 48.4848,-21.7074 48.4848 -48.4848Z"/></g><g stroke-opacity="1.0" fill="rgb(0,0,0)" stroke="rgb(0,0,0)" stroke-linejoin="miter" stroke-linecap="butt" stroke-width="3.919183588453085" stroke-miterlimit="10.0" fill-opacity="1.0"><path d="M 400.0000,2230.3030 c 0.0000,-26.7774 -21.7074,-48.4848 -48.4848 -48.4848c -26.7774,-0.0000 -48.4848,21.7074 -48.4848 48.4848c -0.0000,26.7774 21.7074,48.4848 48.4848 48.4848c 26.7774,0.0000 48.4848,-21.7074 48.4848 -48.4848Z"/></g><g stroke-opacity="1.0" fill="rgb(0,0,0)" stroke="rgb(0,0,0)" stroke-linejoin="miter" stroke-linecap="butt" stroke-width="3.919183588453085" stroke-miterlimit="10.0" fill-opacity="1.0"><path d="M 218.1818,1745.4545 c 0.0000,-26.7774 -21.7074,-48.4848 -48.4848 -48.4848c -26.7774,-0.0000 -48.4848,21.7074 -48.4848 48.4848c -0.0000,26.7774 21.7074,48.4848 48.4848 48.4848c 26.7774,0.0000 48.4848,-21.7074 48.4848 -48.4848Z"/></g><g stroke-opacity="1.0" fill="rgb(0,0,0)" stroke="rgb(0,0,0)" stroke-linejoin="miter" stroke-linecap="butt" stroke-width="3.919183588453085" stroke-miterlimit="10.0" fill-opacity="1.0"><path d="M 157.5758,1260.6061 c 0.0000,-26.7774 -21.7074,-48.4848 -48.4848 -48.4848c -26.7774,-0.0000 -48.4848,21.7074 -48.4848 48.4848c -0.0000,26.7774 21.7074,48.4848 48.4848 48.4848c 26.7774,0.0000 48.4848,-21.7074 48.4848 -48.4848Z"/></g><g stroke-opacity="1.0" fill="rgb(0,0,0)" stroke="rgb(0,0,0)" stroke-linejoin="miter" stroke-linecap="butt" stroke-width="3.919183588453085" stroke-miterlimit="10.0" fill-opacity="1.0"><path d="M 96.9697,109.0909 c 0.0000,-26.7774 -21.7074,-48.4848 -48.4848 -48.4848c -26.7774,-0.0000 -48.4848,21.7074 -48.4848 48.4848c -0.0000,26.7774 21.7074,48.4848 48.4848 48.4848c 26.7774,0.0000 48.4848,-21.7074 48.4848 -48.4848Z"/></g><g stroke-opacity="1.0" fill="rgb(0,0,0)" stroke="rgb(0,0,0)" stroke-linejoin="miter" stroke-linecap="butt" stroke-width="3.919183588453085" stroke-miterlimit="10.0" fill-opacity="1.0"><path d="M 218.1818,1442.4242 c 0.0000,-26.7774 -21.7074,-48.4848 -48.4848 -48.4848c -26.7774,-0.0000 -48.4848,21.7074 -48.4848 48.4848c -0.0000,26.7774 21.7074,48.4848 48.4848 48.4848c 26.7774,0.0000 48.4848,-21.7074 48.4848 -48.4848Z"/></g><g stroke-opacity="1.0" fill="rgb(0,0,0)" stroke="rgb(0,0,0)" stroke-linejoin="miter" stroke-linecap="butt" stroke-width="3.919183588453085" stroke-miterlimit="10.0" fill-opacity="1.0"><path d="M 400.0000,2048.4848 c 0.0000,-26.7774 -21.7074,-48.4848 -48.4848 -48.4848c -26.7774,-0.0000 -48.4848,21.7074 -48.4848 48.4848c -0.0000,26.7774 21.7074,48.4848 48.4848 48.4848c 26.7774,0.0000 48.4848,-21.7074 48.4848 -48.4848Z"/></g><g stroke-opacity="1.0" fill="rgb(0,0,0)" stroke="rgb(0,0,0)" stroke-linejoin="miter" stroke-linecap="butt" stroke-width="3.919183588453085" stroke-miterlimit="10.0" fill-opacity="1.0"><path d="M 157.5758,1866.6667 c 0.0000,-26.7774 -21.7074,-48.4848 -48.4848 -48.4848c -26.7774,-0.0000 -48.4848,21.7074 -48.4848 48.4848c -0.0000,26.7774 21.7074,48.4848 48.4848 48.4848c 26.7774,0.0000 48.4848,-21.7074 48.4848 -48.4848Z"/></g><g stroke-opacity="1.0" fill="rgb(0,0,0)" stroke="rgb(0,0,0)" stroke-linejoin="miter" stroke-linecap="butt" stroke-width="3.919183588453085" stroke-miterlimit="10.0" fill-opacity="1.0"><path d="M 339.3939,230.3030 c 0.0000,-26.7774 -21.7074,-48.4848 -48.4848 -48.4848c -26.7774,-0.0000 -48.4848,21.7074 -48.4848 48.4848c -0.0000,26.7774 21.7074,48.4848 48.4848 48.4848c 26.7774,0.0000 48.4848,-21.7074 48.4848 -48.4848Z"/></g><g stroke-opacity="1.0" fill="rgb(0,0,0)" stroke="rgb(0,0,0)" stroke-linejoin="miter" stroke-linecap="butt" stroke-width="3.919183588453085" stroke-miterlimit="10.0" fill-opacity="1.0"><path d="M 278.7879,1987.8788 c 0.0000,-26.7774 -21.7074,-48.4848 -48.4848 -48.4848c -26.7774,-0.0000 -48.4848,21.7074 -48.4848 48.4848c -0.0000,26.7774 21.7074,48.4848 48.4848 48.4848c 26.7774,0.0000 48.4848,-21.7074 48.4848 -48.4848Z"/></g><g stroke-opacity="1.0" fill="rgb(0,0,0)" stroke="rgb(0,0,0)" stroke-linejoin="miter" stroke-linecap="butt" stroke-width="3.919183588453085" stroke-miterlimit="10.0" fill-opacity="1.0"><path d="M 278.7879,836.3636 c 0.0000,-26.7774 -21.7074,-48.4848 -48.4848 -48.4848c -26.7774,-0.0000 -48.4848,21.7074 -48.4848 48.4848c -0.0000,26.7774 21.7074,48.4848 48.4848 48.4848c 26.7774,0.0000 48.4848,-21.7074 48.4848 -48.4848Z"/></g><g stroke-opacity="1.0" fill="rgb(0,0,0)" stroke="rgb(0,0,0)" stroke-linejoin="miter" stroke-linecap="butt" stroke-width="3.919183588453085" stroke-miterlimit="10.0" fill-opacity="1.0"><path d="M 96.9697,1078.7879 c 0.0000,-26.7774 -21.7074,-48.4848 -48.4848 -48.4848c -26.7774,-0.0000 -48.4848,21.7074 -48.4848 48.4848c -0.0000,26.7774 21.7074,48.4848 48.4848 48.4848c 26.7774,0.0000 48.4848,-21.7074 48.4848 -48.4848Z"/></g><g stroke-opacity="1.0" fill="rgb(0,0,0)" stroke="rgb(0,0,0)" stroke-linejoin="miter" stroke-linecap="butt" stroke-width="3.919183588453085" stroke-miterlimit="10.0" fill-opacity="1.0"><path d="M 96.9697,2351.5152 c 0.0000,-26.7774 -21.7074,-48.4848 -48.4848 -48.4848c -26.7774,-0.0000 -48.4848,21.7074 -48.4848 48.4848c -0.0000,26.7774 21.7074,48.4848 48.4848 48.4848c 26.7774,0.0000 48.4848,-21.7074 48.4848 -48.4848Z"/></g><g stroke-opacity="1.0" fill="rgb(0,0,0)" stroke="rgb(0,0,0)" stroke-linejoin="miter" stroke-linecap="butt" stroke-width="3.919183588453085" stroke-miterlimit="10.0" fill-opacity="1.0"><path d="M 278.7879,48.4848 c 0.0000,-26.7774 -21.7074,-48.4848 -48.4848 -48.4848c -26.7774,-0.0000 -48.4848,21.7074 -48.4848 48.4848c -0.0000,26.7774 21.7074,48.4848 48.4848 48.4848c 26.7774,0.0000 48.4848,-21.7074 48.4848 -48.4848Z"/></g><g stroke-opacity="1.0" fill="rgb(0,0,0)" stroke="rgb(0,0,0)" stroke-linejoin="miter" stroke-linecap="butt" stroke-width="3.919183588453085" stroke-miterlimit="10.0" fill-opacity="1.0"><path d="M 278.7879,230.3030 c 0.0000,-26.7774 -21.7074,-48.4848 -48.4848 -48.4848c -26.7774,-0.0000 -48.4848,21.7074 -48.4848 48.4848c -0.0000,26.7774 21.7074,48.4848 48.4848 48.4848c 26.7774,0.0000 48.4848,-21.7074 48.4848 -48.4848Z"/></g><g stroke-opacity="1.0" fill="rgb(0,0,0)" stroke="rgb(0,0,0)" stroke-linejoin="miter" stroke-linecap="butt" stroke-width="3.919183588453085" stroke-miterlimit="10.0" fill-opacity="1.0"><path d="M 400.0000,1563.6364 c 0.0000,-26.7774 -21.7074,-48.4848 -48.4848 -48.4848c -26.7774,-0.0000 -48.4848,21.7074 -48.4848 48.4848c -0.0000,26.7774 21.7074,48.4848 48.4848 48.4848c 26.7774,0.0000 48.4848,-21.7074 48.4848 -48.4848Z"/></g><g stroke-opacity="1.0" fill="rgb(0,0,0)" stroke="rgb(0,0,0)" stroke-linejoin="miter" stroke-linecap="butt" stroke-width="3.919183588453085" stroke-miterlimit="10.0" fill-opacity="1.0"><path d="M 278.7879,1927.2727 c 0.0000,-26.7774 -21.7074,-48.4848 -48.4848 -48.4848c -26.7774,-0.0000 -48.4848,21.7074 -48.4848 48.4848c -0.0000,26.7774 21.7074,48.4848 48.4848 48.4848c 26.7774,0.0000 48.4848,-21.7074 48.4848 -48.4848Z"/></g><g stroke-opacity="1.0" fill="rgb(0,0,0)" stroke="rgb(0,0,0)" stroke-linejoin="miter" stroke-linecap="butt" stroke-width="3.919183588453085" stroke-miterlimit="10.0" fill-opacity="1.0"><path d="M 400.0000,1442.4242 c 0.0000,-26.7774 -21.7074,-48.4848 -48.4848 -48.4848c -26.7774,-0.0000 -48.4848,21.7074 -48.4848 48.4848c -0.0000,26.7774 21.7074,48.4848 48.4848 48.4848c 26.7774,0.0000 48.4848,-21.7074 48.4848 -48.4848Z"/></g><g stroke-opacity="1.0" fill="rgb(0,0,0)" stroke="rgb(0,0,0)" stroke-linejoin="miter" stroke-linecap="butt" stroke-width="3.919183588453085" stroke-miterlimit="10.0" fill-opacity="1.0"><path d="M 278.7879,1563.6364 c 0.0000,-26.7774 -21.7074,-48.4848 -48.4848 -48.4848c -26.7774,-0.0000 -48.4848,21.7074 -48.4848 48.4848c -0.0000,26.7774 21.7074,48.4848 48.4848 48.4848c 26.7774,0.0000 48.4848,-21.7074 48.4848 -48.4848Z"/></g><g stroke-opacity="1.0" fill="rgb(0,0,0)" stroke="rgb(0,0,0)" stroke-linejoin="miter" stroke-linecap="butt" stroke-width="3.919183588453085" stroke-miterlimit="10.0" fill-opacity="1.0"><path d="M 218.1818,533.3333 c 0.0000,-26.7774 -21.7074,-48.4848 -48.4848 -48.4848c -26.7774,-0.0000 -48.4848,21.7074 -48.4848 48.4848c -0.0000,26.7774 21.7074,48.4848 48.4848 48.4848c 26.7774,0.0000 48.4848,-21.7074 48.4848 -48.4848Z"/></g><g stroke-opacity="1.0" fill="rgb(0,0,0)" stroke="rgb(0,0,0)" stroke-linejoin="miter" stroke-linecap="butt" stroke-width="3.919183588453085" stroke-miterlimit="10.0" fill-opacity="1.0"><path d="M 278.7879,533.3333 c 0.0000,-26.7774 -21.7074,-48.4848 -48.4848 -48.4848c -26.7774,-0.0000 -48.4848,21.7074 -48.4848 48.4848c -0.0000,26.7774 21.7074,48.4848 48.4848 48.4848c 26.7774,0.0000 48.4848,-21.7074 48.4848 -48.4848Z"/></g><g stroke-opacity="1.0" fill="rgb(0,0,0)" stroke="rgb(0,0,0)" stroke-linejoin="miter" stroke-linecap="butt" stroke-width="3.919183588453085" stroke-miterlimit="10.0" fill-opacity="1.0"><path d="M 400.0000,836.3636 c 0.0000,-26.7774 -21.7074,-48.4848 -48.4848 -48.4848c -26.7774,-0.0000 -48.4848,21.7074 -48.4848 48.4848c -0.0000,26.7774 21.7074,48.4848 48.4848 48.4848c 26.7774,0.0000 48.4848,-21.7074 48.4848 -48.4848Z"/></g><g stroke-opacity="1.0" fill="rgb(0,0,0)" stroke="rgb(0,0,0)" stroke-linejoin="miter" stroke-linecap="butt" stroke-width="3.919183588453085" stroke-miterlimit="10.0" fill-opacity="1.0"><path d="M 96.9697,1381.8182 c 0.0000,-26.7774 -21.7074,-48.4848 -48.4848 -48.4848c -26.7774,-0.0000 -48.4848,21.7074 -48.4848 48.4848c -0.0000,26.7774 21.7074,48.4848 48.4848 48.4848c 26.7774,0.0000 48.4848,-21.7074 48.4848 -48.4848Z"/></g><g stroke-opacity="1.0" fill="rgb(0,0,0)" stroke="rgb(0,0,0)" stroke-linejoin="miter" stroke-linecap="butt" stroke-width="3.919183588453085" stroke-miterlimit="10.0" fill-opacity="1.0"><path d="M 400.0000,109.0909 c 0.0000,-26.7774 -21.7074,-48.4848 -48.4848 -48.4848c -26.7774,-0.0000 -48.4848,21.7074 -48.4848 48.4848c -0.0000,26.7774 21.7074,48.4848 48.4848 48.4848c 26.7774,0.0000 48.4848,-21.7074 48.4848 -48.4848Z"/></g><g stroke-opacity="1.0" fill="rgb(0,0,0)" stroke="rgb(0,0,0)" stroke-linejoin="miter" stroke-linecap="butt" stroke-width="3.919183588453085" stroke-miterlimit="10.0" fill-opacity="1.0"><path d="M 339.3939,1927.2727 c 0.0000,-26.7774 -21.7074,-48.4848 -48.4848 -48.4848c -26.7774,-0.0000 -48.4848,21.7074 -48.4848 48.4848c -0.0000,26.7774 21.7074,48.4848 48.4848 48.4848c 26.7774,0.0000 48.4848,-21.7074 48.4848 -48.4848Z"/></g><g stroke-opacity="1.0" fill="rgb(0,0,0)" stroke="rgb(0,0,0)" stroke-linejoin="miter" stroke-linecap="butt" stroke-width="3.919183588453085" stroke-miterlimit="10.0" fill-opacity="1.0"><path d="M 218.1818,836.3636 c 0.0000,-26.7774 -21.7074,-48.4848 -48.4848 -48.4848c -26.7774,-0.0000 -48.4848,21.7074 -48.4848 48.4848c -0.0000,26.7774 21.7074,48.4848 48.4848 48.4848c 26.7774,0.0000 48.4848,-21.7074 48.4848 -48.4848Z"/></g><g stroke-opacity="1.0" fill="rgb(0,0,0)" stroke="rgb(0,0,0)" stroke-linejoin="miter" stroke-linecap="butt" stroke-width="3.919183588453085" stroke-miterlimit="10.0" fill-opacity="1.0"><path d="M 96.9697,1987.8788 c 0.0000,-26.7774 -21.7074,-48.4848 -48.4848 -48.4848c -26.7774,-0.0000 -48.4848,21.7074 -48.4848 48.4848c -0.0000,26.7774 21.7074,48.4848 48.4848 48.4848c 26.7774,0.0000 48.4848,-21.7074 48.4848 -48.4848Z"/></g><g stroke-opacity="1.0" fill="rgb(0,0,0)" stroke="rgb(0,0,0)" stroke-linejoin="miter" stroke-linecap="butt" stroke-width="3.919183588453085" stroke-miterlimit="10.0" fill-opacity="1.0"><path d="M 96.9697,1624.2424 c 0.0000,-26.7774 -21.7074,-48.4848 -48.4848 -48.4848c -26.7774,-0.0000 -48.4848,21.7074 -48.4848 48.4848c -0.0000,26.7774 21.7074,48.4848 48.4848 48.4848c 26.7774,0.0000 48.4848,-21.7074 48.4848 -48.4848Z"/></g><g stroke-opacity="1.0" fill="rgb(0,0,0)" stroke="rgb(0,0,0)" stroke-linejoin="miter" stroke-linecap="butt" stroke-width="3.919183588453085" stroke-miterlimit="10.0" fill-opacity="1.0"><path d="M 400.0000,715.1515 c 0.0000,-26.7774 -21.7074,-48.4848 -48.4848 -48.4848c -26.7774,-0.0000 -48.4848,21.7074 -48.4848 48.4848c -0.0000,26.7774 21.7074,48.4848 48.4848 48.4848c 26.7774,0.0000 48.4848,-21.7074 48.4848 -48.4848Z"/></g><g stroke-opacity="1.0" fill="rgb(0,0,0)" stroke="rgb(0,0,0)" stroke-linejoin="miter" stroke-linecap="butt" stroke-width="3.919183588453085" stroke-miterlimit="10.0" fill-opacity="1.0"><path d="M 400.0000,169.6970 c 0.0000,-26.7774 -21.7074,-48.4848 -48.4848 -48.4848c -26.7774,-0.0000 -48.4848,21.7074 -48.4848 48.4848c -0.0000,26.7774 21.7074,48.4848 48.4848 48.4848c 26.7774,0.0000 48.4848,-21.7074 48.4848 -48.4848Z"/></g><g stroke-opacity="1.0" fill="rgb(0,0,0)" stroke="rgb(0,0,0)" stroke-linejoin="miter" stroke-linecap="butt" stroke-width="3.919183588453085" stroke-miterlimit="10.0" fill-opacity="1.0"><path d="M 400.0000,957.5758 c 0.0000,-26.7774 -21.7074,-48.4848 -48.4848 -48.4848c -26.7774,-0.0000 -48.4848,21.7074 -48.4848 48.4848c -0.0000,26.7774 21.7074,48.4848 48.4848 48.4848c 26.7774,0.0000 48.4848,-21.7074 48.4848 -48.4848Z"/></g><g stroke-opacity="1.0" fill="rgb(0,0,0)" stroke="rgb(0,0,0)" stroke-linejoin="miter" stroke-linecap="butt" stroke-width="3.919183588453085" stroke-miterlimit="10.0" fill-opacity="1.0"><path d="M 400.0000,1684.8485 c 0.0000,-26.7774 -21.7074,-48.4848 -48.4848 -48.4848c -26.7774,-0.0000 -48.4848,21.7074 -48.4848 48.4848c -0.0000,26.7774 21.7074,48.4848 48.4848 48.4848c 26.7774,0.0000 48.4848,-21.7074 48.4848 -48.4848Z"/></g><g stroke-opacity="1.0" fill="rgb(0,0,0)" stroke="rgb(0,0,0)" stroke-linejoin="miter" stroke-linecap="butt" stroke-width="3.919183588453085" stroke-miterlimit="10.0" fill-opacity="1.0"><path d="M 96.9697,1139.3939 c 0.0000,-26.7774 -21.7074,-48.4848 -48.4848 -48.4848c -26.7774,-0.0000 -48.4848,21.7074 -48.4848 48.4848c -0.0000,26.7774 21.7074,48.4848 48.4848 48.4848c 26.7774,0.0000 48.4848,-21.7074 48.4848 -48.4848Z"/></g><g stroke-opacity="1.0" fill="rgb(0,0,0)" stroke="rgb(0,0,0)" stroke-linejoin="miter" stroke-linecap="butt" stroke-width="3.919183588453085" stroke-miterlimit="10.0" fill-opacity="1.0"><path d="M 339.3939,533.3333 c 0.0000,-26.7774 -21.7074,-48.4848 -48.4848 -48.4848c -26.7774,-0.0000 -48.4848,21.7074 -48.4848 48.4848c -0.0000,26.7774 21.7074,48.4848 48.4848 48.4848c 26.7774,0.0000 48.4848,-21.7074 48.4848 -48.4848Z"/></g><g stroke-opacity="1.0" fill="rgb(0,0,0)" stroke="rgb(0,0,0)" stroke-linejoin="miter" stroke-linecap="butt" stroke-width="3.919183588453085" stroke-miterlimit="10.0" fill-opacity="1.0"><path d="M 278.7879,1139.3939 c 0.0000,-26.7774 -21.7074,-48.4848 -48.4848 -48.4848c -26.7774,-0.0000 -48.4848,21.7074 -48.4848 48.4848c -0.0000,26.7774 21.7074,48.4848 48.4848 48.4848c 26.7774,0.0000 48.4848,-21.7074 48.4848 -48.4848Z"/></g><g stroke-opacity="1.0" fill="rgb(0,0,0)" stroke="rgb(0,0,0)" stroke-linejoin="miter" stroke-linecap="butt" stroke-width="3.919183588453085" stroke-miterlimit="10.0" fill-opacity="1.0"><path d="M 339.3939,1563.6364 c 0.0000,-26.7774 -21.7074,-48.4848 -48.4848 -48.4848c -26.7774,-0.0000 -48.4848,21.7074 -48.4848 48.4848c -0.0000,26.7774 21.7074,48.4848 48.4848 48.4848c 26.7774,0.0000 48.4848,-21.7074 48.4848 -48.4848Z"/></g><g stroke-opacity="1.0" fill="rgb(0,0,0)" stroke="rgb(0,0,0)" stroke-linejoin="miter" stroke-linecap="butt" stroke-width="3.919183588453085" stroke-miterlimit="10.0" fill-opacity="1.0"><path d="M 278.7879,2351.5152 c 0.0000,-26.7774 -21.7074,-48.4848 -48.4848 -48.4848c -26.7774,-0.0000 -48.4848,21.7074 -48.4848 48.4848c -0.0000,26.7774 21.7074,48.4848 48.4848 48.4848c 26.7774,0.0000 48.4848,-21.7074 48.4848 -48.4848Z"/></g><g stroke-opacity="1.0" fill="rgb(0,0,0)" stroke="rgb(0,0,0)" stroke-linejoin="miter" stroke-linecap="butt" stroke-width="3.919183588453085" stroke-miterlimit="10.0" fill-opacity="1.0"><path d="M 218.1818,1139.3939 c 0.0000,-26.7774 -21.7074,-48.4848 -48.4848 -48.4848c -26.7774,-0.0000 -48.4848,21.7074 -48.4848 48.4848c -0.0000,26.7774 21.7074,48.4848 48.4848 48.4848c 26.7774,0.0000 48.4848,-21.7074 48.4848 -48.4848Z"/></g><g stroke-opacity="1.0" fill="rgb(0,0,0)" stroke="rgb(0,0,0)" stroke-linejoin="miter" stroke-linecap="butt" stroke-width="3.919183588453085" stroke-miterlimit="10.0" fill-opacity="1.0"><path d="M 157.5758,230.3030 c 0.0000,-26.7774 -21.7074,-48.4848 -48.4848 -48.4848c -26.7774,-0.0000 -48.4848,21.7074 -48.4848 48.4848c -0.0000,26.7774 21.7074,48.4848 48.4848 48.4848c 26.7774,0.0000 48.4848,-21.7074 48.4848 -48.4848Z"/></g><g stroke-opacity="1.0" fill="rgb(0,0,0)" stroke="rgb(0,0,0)" stroke-linejoin="miter" stroke-linecap="butt" stroke-width="3.919183588453085" stroke-miterlimit="10.0" fill-opacity="1.0"><path d="M 96.9697,1018.1818 c 0.0000,-26.7774 -21.7074,-48.4848 -48.4848 -48.4848c -26.7774,-0.0000 -48.4848,21.7074 -48.4848 48.4848c -0.0000,26.7774 21.7074,48.4848 48.4848 48.4848c 26.7774,0.0000 48.4848,-21.7074 48.4848 -48.4848Z"/></g><g stroke-opacity="1.0" fill="rgb(0,0,0)" stroke="rgb(0,0,0)" stroke-linejoin="miter" stroke-linecap="butt" stroke-width="3.919183588453085" stroke-miterlimit="10.0" fill-opacity="1.0"><path d="M 278.7879,1745.4545 c 0.0000,-26.7774 -21.7074,-48.4848 -48.4848 -48.4848c -26.7774,-0.0000 -48.4848,21.7074 -48.4848 48.4848c -0.0000,26.7774 21.7074,48.4848 48.4848 48.4848c 26.7774,0.0000 48.4848,-21.7074 48.4848 -48.4848Z"/></g><g stroke-opacity="1.0" fill="rgb(0,0,0)" stroke="rgb(0,0,0)" stroke-linejoin="miter" stroke-linecap="butt" stroke-width="3.919183588453085" stroke-miterlimit="10.0" fill-opacity="1.0"><path d="M 218.1818,2048.4848 c 0.0000,-26.7774 -21.7074,-48.4848 -48.4848 -48.4848c -26.7774,-0.0000 -48.4848,21.7074 -48.4848 48.4848c -0.0000,26.7774 21.7074,48.4848 48.4848 48.4848c 26.7774,0.0000 48.4848,-21.7074 48.4848 -48.4848Z"/></g><g stroke-opacity="1.0" fill="rgb(0,0,0)" stroke="rgb(0,0,0)" stroke-linejoin="miter" stroke-linecap="butt" stroke-width="3.919183588453085" stroke-miterlimit="10.0" fill-opacity="1.0"><path d="M 218.1818,230.3030 c 0.0000,-26.7774 -21.7074,-48.4848 -48.4848 -48.4848c -26.7774,-0.0000 -48.4848,21.7074 -48.4848 48.4848c -0.0000,26.7774 21.7074,48.4848 48.4848 48.4848c 26.7774,0.0000 48.4848,-21.7074 48.4848 -48.4848Z"/></g><g stroke-opacity="1.0" fill="rgb(0,0,0)" stroke="rgb(0,0,0)" stroke-linejoin="miter" stroke-linecap="butt" stroke-width="3.919183588453085" stroke-miterlimit="10.0" fill-opacity="1.0"><path d="M 96.9697,654.5455 c 0.0000,-26.7774 -21.7074,-48.4848 -48.4848 -48.4848c -26.7774,-0.0000 -48.4848,21.7074 -48.4848 48.4848c -0.0000,26.7774 21.7074,48.4848 48.4848 48.4848c 26.7774,0.0000 48.4848,-21.7074 48.4848 -48.4848Z"/></g><g stroke-opacity="1.0" fill="rgb(0,0,0)" stroke="rgb(0,0,0)" stroke-linejoin="miter" stroke-linecap="butt" stroke-width="3.919183588453085" stroke-miterlimit="10.0" fill-opacity="1.0"><path d="M 157.5758,1745.4545 c 0.0000,-26.7774 -21.7074,-48.4848 -48.4848 -48.4848c -26.7774,-0.0000 -48.4848,21.7074 -48.4848 48.4848c -0.0000,26.7774 21.7074,48.4848 48.4848 48.4848c 26.7774,0.0000 48.4848,-21.7074 48.4848 -48.4848Z"/></g><g stroke-opacity="1.0" fill="rgb(0,0,0)" stroke="rgb(0,0,0)" stroke-linejoin="miter" stroke-linecap="butt" stroke-width="3.919183588453085" stroke-miterlimit="10.0" fill-opacity="1.0"><path d="M 157.5758,2048.4848 c 0.0000,-26.7774 -21.7074,-48.4848 -48.4848 -48.4848c -26.7774,-0.0000 -48.4848,21.7074 -48.4848 48.4848c -0.0000,26.7774 21.7074,48.4848 48.4848 48.4848c 26.7774,0.0000 48.4848,-21.7074 48.4848 -48.4848Z"/></g><g stroke-opacity="1.0" fill="rgb(0,0,0)" stroke="rgb(0,0,0)" stroke-linejoin="miter" stroke-linecap="butt" stroke-width="3.919183588453085" stroke-miterlimit="10.0" fill-opacity="1.0"><path d="M 157.5758,2351.5152 c 0.0000,-26.7774 -21.7074,-48.4848 -48.4848 -48.4848c -26.7774,-0.0000 -48.4848,21.7074 -48.4848 48.4848c -0.0000,26.7774 21.7074,48.4848 48.4848 48.4848c 26.7774,0.0000 48.4848,-21.7074 48.4848 -48.4848Z"/></g><g stroke-opacity="1.0" fill="rgb(0,0,0)" stroke="rgb(0,0,0)" stroke-linejoin="miter" stroke-linecap="butt" stroke-width="3.919183588453085" stroke-miterlimit="10.0" fill-opacity="1.0"><path d="M 400.0000,412.1212 c 0.0000,-26.7774 -21.7074,-48.4848 -48.4848 -48.4848c -26.7774,-0.0000 -48.4848,21.7074 -48.4848 48.4848c -0.0000,26.7774 21.7074,48.4848 48.4848 48.4848c 26.7774,0.0000 48.4848,-21.7074 48.4848 -48.4848Z"/></g><g stroke-opacity="1.0" fill="rgb(0,0,0)" stroke="rgb(0,0,0)" stroke-linejoin="miter" stroke-linecap="butt" stroke-width="3.919183588453085" stroke-miterlimit="10.0" fill-opacity="1.0"><path d="M 218.1818,1260.6061 c 0.0000,-26.7774 -21.7074,-48.4848 -48.4848 -48.4848c -26.7774,-0.0000 -48.4848,21.7074 -48.4848 48.4848c -0.0000,26.7774 21.7074,48.4848 48.4848 48.4848c 26.7774,0.0000 48.4848,-21.7074 48.4848 -48.4848Z"/></g><g stroke-opacity="1.0" fill="rgb(0,0,0)" stroke="rgb(0,0,0)" stroke-linejoin="miter" stroke-linecap="butt" stroke-width="3.919183588453085" stroke-miterlimit="10.0" fill-opacity="1.0"><path d="M 218.1818,109.0909 c 0.0000,-26.7774 -21.7074,-48.4848 -48.4848 -48.4848c -26.7774,-0.0000 -48.4848,21.7074 -48.4848 48.4848c -0.0000,26.7774 21.7074,48.4848 48.4848 48.4848c 26.7774,0.0000 48.4848,-21.7074 48.4848 -48.4848Z"/></g><g stroke-opacity="1.0" fill="rgb(0,0,0)" stroke="rgb(0,0,0)" stroke-linejoin="miter" stroke-linecap="butt" stroke-width="3.919183588453085" stroke-miterlimit="10.0" fill-opacity="1.0"><path d="M 96.9697,1927.2727 c 0.0000,-26.7774 -21.7074,-48.4848 -48.4848 -48.4848c -26.7774,-0.0000 -48.4848,21.7074 -48.4848 48.4848c -0.0000,26.7774 21.7074,48.4848 48.4848 48.4848c 26.7774,0.0000 48.4848,-21.7074 48.4848 -48.4848Z"/></g><g stroke-opacity="1.0" fill="rgb(0,0,0)" stroke="rgb(0,0,0)" stroke-linejoin="miter" stroke-linecap="butt" stroke-width="3.919183588453085" stroke-miterlimit="10.0" fill-opacity="1.0"><path d="M 400.0000,2290.9091 c 0.0000,-26.7774 -21.7074,-48.4848 -48.4848 -48.4848c -26.7774,-0.0000 -48.4848,21.7074 -48.4848 48.4848c -0.0000,26.7774 21.7074,48.4848 48.4848 48.4848c 26.7774,0.0000 48.4848,-21.7074 48.4848 -48.4848Z"/></g><g stroke-opacity="1.0" fill="rgb(0,0,0)" stroke="rgb(0,0,0)" stroke-linejoin="miter" stroke-linecap="butt" stroke-width="3.919183588453085" stroke-miterlimit="10.0" fill-opacity="1.0"><path d="M 339.3939,1442.4242 c 0.0000,-26.7774 -21.7074,-48.4848 -48.4848 -48.4848c -26.7774,-0.0000 -48.4848,21.7074 -48.4848 48.4848c -0.0000,26.7774 21.7074,48.4848 48.4848 48.4848c 26.7774,0.0000 48.4848,-21.7074 48.4848 -48.4848Z"/></g><g stroke-opacity="1.0" fill="rgb(0,0,0)" stroke="rgb(0,0,0)" stroke-linejoin="miter" stroke-linecap="butt" stroke-width="3.919183588453085" stroke-miterlimit="10.0" fill-opacity="1.0"><path d="M 218.1818,775.7576 c 0.0000,-26.7774 -21.7074,-48.4848 -48.4848 -48.4848c -26.7774,-0.0000 -48.4848,21.7074 -48.4848 48.4848c -0.0000,26.7774 21.7074,48.4848 48.4848 48.4848c 26.7774,0.0000 48.4848,-21.7074 48.4848 -48.4848Z"/></g><g stroke-opacity="1.0" fill="rgb(0,0,0)" stroke="rgb(0,0,0)" stroke-linejoin="miter" stroke-linecap="butt" stroke-width="3.919183588453085" stroke-miterlimit="10.0" fill-opacity="1.0"><path d="M 218.1818,169.6970 c 0.0000,-26.7774 -21.7074,-48.4848 -48.4848 -48.4848c -26.7774,-0.0000 -48.4848,21.7074 -48.4848 48.4848c -0.0000,26.7774 21.7074,48.4848 48.4848 48.4848c 26.7774,0.0000 48.4848,-21.7074 48.4848 -48.4848Z"/></g><g stroke-opacity="1.0" fill="rgb(0,0,0)" stroke="rgb(0,0,0)" stroke-linejoin="miter" stroke-linecap="butt" stroke-width="3.919183588453085" stroke-miterlimit="10.0" fill-opacity="1.0"><path d="M 96.9697,472.7273 c 0.0000,-26.7774 -21.7074,-48.4848 -48.4848 -48.4848c -26.7774,-0.0000 -48.4848,21.7074 -48.4848 48.4848c -0.0000,26.7774 21.7074,48.4848 48.4848 48.4848c 26.7774,0.0000 48.4848,-21.7074 48.4848 -48.4848Z"/></g><g stroke-opacity="1.0" fill="rgb(0,0,0)" stroke="rgb(0,0,0)" stroke-linejoin="miter" stroke-linecap="butt" stroke-width="3.919183588453085" stroke-miterlimit="10.0" fill-opacity="1.0"><path d="M 400.0000,2169.6970 c 0.0000,-26.7774 -21.7074,-48.4848 -48.4848 -48.4848c -26.7774,-0.0000 -48.4848,21.7074 -48.4848 48.4848c -0.0000,26.7774 21.7074,48.4848 48.4848 48.4848c 26.7774,0.0000 48.4848,-21.7074 48.4848 -48.4848Z"/></g><g stroke-opacity="1.0" fill="rgb(0,0,0)" stroke="rgb(0,0,0)" stroke-linejoin="miter" stroke-linecap="butt" stroke-width="3.919183588453085" stroke-miterlimit="10.0" fill-opacity="1.0"><path d="M 278.7879,1442.4242 c 0.0000,-26.7774 -21.7074,-48.4848 -48.4848 -48.4848c -26.7774,-0.0000 -48.4848,21.7074 -48.4848 48.4848c -0.0000,26.7774 21.7074,48.4848 48.4848 48.4848c 26.7774,0.0000 48.4848,-21.7074 48.4848 -48.4848Z"/></g><g stroke-opacity="1.0" fill="rgb(0,0,0)" stroke="rgb(0,0,0)" stroke-linejoin="miter" stroke-linecap="butt" stroke-width="3.919183588453085" stroke-miterlimit="10.0" fill-opacity="1.0"><path d="M 278.7879,1624.2424 c 0.0000,-26.7774 -21.7074,-48.4848 -48.4848 -48.4848c -26.7774,-0.0000 -48.4848,21.7074 -48.4848 48.4848c -0.0000,26.7774 21.7074,48.4848 48.4848 48.4848c 26.7774,0.0000 48.4848,-21.7074 48.4848 -48.4848Z"/></g><g stroke-opacity="1.0" fill="rgb(0,0,0)" stroke="rgb(0,0,0)" stroke-linejoin="miter" stroke-linecap="butt" stroke-width="3.919183588453085" stroke-miterlimit="10.0" fill-opacity="1.0"><path d="M 157.5758,957.5758 c 0.0000,-26.7774 -21.7074,-48.4848 -48.4848 -48.4848c -26.7774,-0.0000 -48.4848,21.7074 -48.4848 48.4848c -0.0000,26.7774 21.7074,48.4848 48.4848 48.4848c 26.7774,0.0000 48.4848,-21.7074 48.4848 -48.4848Z"/></g><g stroke-opacity="1.0" fill="rgb(0,0,0)" stroke="rgb(0,0,0)" stroke-linejoin="miter" stroke-linecap="butt" stroke-width="3.919183588453085" stroke-miterlimit="10.0" fill-opacity="1.0"><path d="M 339.3939,1018.1818 c 0.0000,-26.7774 -21.7074,-48.4848 -48.4848 -48.4848c -26.7774,-0.0000 -48.4848,21.7074 -48.4848 48.4848c -0.0000,26.7774 21.7074,48.4848 48.4848 48.4848c 26.7774,0.0000 48.4848,-21.7074 48.4848 -48.4848Z"/></g><g stroke-opacity="1.0" fill="rgb(0,0,0)" stroke="rgb(0,0,0)" stroke-linejoin="miter" stroke-linecap="butt" stroke-width="3.919183588453085" stroke-miterlimit="10.0" fill-opacity="1.0"><path d="M 157.5758,351.5152 c 0.0000,-26.7774 -21.7074,-48.4848 -48.4848 -48.4848c -26.7774,-0.0000 -48.4848,21.7074 -48.4848 48.4848c -0.0000,26.7774 21.7074,48.4848 48.4848 48.4848c 26.7774,0.0000 48.4848,-21.7074 48.4848 -48.4848Z"/></g><g stroke-opacity="1.0" fill="rgb(0,0,0)" stroke="rgb(0,0,0)" stroke-linejoin="miter" stroke-linecap="butt" stroke-width="3.919183588453085" stroke-miterlimit="10.0" fill-opacity="1.0"><path d="M 96.9697,715.1515 c 0.0000,-26.7774 -21.7074,-48.4848 -48.4848 -48.4848c -26.7774,-0.0000 -48.4848,21.7074 -48.4848 48.4848c -0.0000,26.7774 21.7074,48.4848 48.4848 48.4848c 26.7774,0.0000 48.4848,-21.7074 48.4848 -48.4848Z"/></g><g stroke-opacity="1.0" fill="rgb(0,0,0)" stroke="rgb(0,0,0)" stroke-linejoin="miter" stroke-linecap="butt" stroke-width="3.919183588453085" stroke-miterlimit="10.0" fill-opacity="1.0"><path d="M 218.1818,957.5758 c 0.0000,-26.7774 -21.7074,-48.4848 -48.4848 -48.4848c -26.7774,-0.0000 -48.4848,21.7074 -48.4848 48.4848c -0.0000,26.7774 21.7074,48.4848 48.4848 48.4848c 26.7774,0.0000 48.4848,-21.7074 48.4848 -48.4848Z"/></g><g stroke-opacity="1.0" fill="rgb(0,0,0)" stroke="rgb(0,0,0)" stroke-linejoin="miter" stroke-linecap="butt" stroke-width="3.919183588453085" stroke-miterlimit="10.0" fill-opacity="1.0"><path d="M 339.3939,2048.4848 c 0.0000,-26.7774 -21.7074,-48.4848 -48.4848 -48.4848c -26.7774,-0.0000 -48.4848,21.7074 -48.4848 48.4848c -0.0000,26.7774 21.7074,48.4848 48.4848 48.4848c 26.7774,0.0000 48.4848,-21.7074 48.4848 -48.4848Z"/></g><g stroke-opacity="1.0" fill="rgb(0,0,0)" stroke="rgb(0,0,0)" stroke-linejoin="miter" stroke-linecap="butt" stroke-width="3.919183588453085" stroke-miterlimit="10.0" fill-opacity="1.0"><path d="M 218.1818,715.1515 c 0.0000,-26.7774 -21.7074,-48.4848 -48.4848 -48.4848c -26.7774,-0.0000 -48.4848,21.7074 -48.4848 48.4848c -0.0000,26.7774 21.7074,48.4848 48.4848 48.4848c 26.7774,0.0000 48.4848,-21.7074 48.4848 -48.4848Z"/></g><g stroke-opacity="1.0" fill="rgb(0,0,0)" stroke="rgb(0,0,0)" stroke-linejoin="miter" stroke-linecap="butt" stroke-width="3.919183588453085" stroke-miterlimit="10.0" fill-opacity="1.0"><path d="M 96.9697,775.7576 c 0.0000,-26.7774 -21.7074,-48.4848 -48.4848 -48.4848c -26.7774,-0.0000 -48.4848,21.7074 -48.4848 48.4848c -0.0000,26.7774 21.7074,48.4848 48.4848 48.4848c 26.7774,0.0000 48.4848,-21.7074 48.4848 -48.4848Z"/></g><g stroke-opacity="1.0" fill="rgb(0,0,0)" stroke="rgb(0,0,0)" stroke-linejoin="miter" stroke-linecap="butt" stroke-width="3.919183588453085" stroke-miterlimit="10.0" fill-opacity="1.0"><path d="M 96.9697,169.6970 c 0.0000,-26.7774 -21.7074,-48.4848 -48.4848 -48.4848c -26.7774,-0.0000 -48.4848,21.7074 -48.4848 48.4848c -0.0000,26.7774 21.7074,48.4848 48.4848 48.4848c 26.7774,0.0000 48.4848,-21.7074 48.4848 -48.4848Z"/></g><g stroke-opacity="1.0" fill="rgb(0,0,0)" stroke="rgb(0,0,0)" stroke-linejoin="miter" stroke-linecap="butt" stroke-width="3.919183588453085" stroke-miterlimit="10.0" fill-opacity="1.0"><path d="M 96.9697,836.3636 c 0.0000,-26.7774 -21.7074,-48.4848 -48.4848 -48.4848c -26.7774,-0.0000 -48.4848,21.7074 -48.4848 48.4848c -0.0000,26.7774 21.7074,48.4848 48.4848 48.4848c 26.7774,0.0000 48.4848,-21.7074 48.4848 -48.4848Z"/></g><g stroke-opacity="1.0" fill="rgb(0,0,0)" stroke="rgb(0,0,0)" stroke-linejoin="miter" stroke-linecap="butt" stroke-width="3.919183588453085" stroke-miterlimit="10.0" fill-opacity="1.0"><path d="M 96.9697,412.1212 c 0.0000,-26.7774 -21.7074,-48.4848 -48.4848 -48.4848c -26.7774,-0.0000 -48.4848,21.7074 -48.4848 48.4848c -0.0000,26.7774 21.7074,48.4848 48.4848 48.4848c 26.7774,0.0000 48.4848,-21.7074 48.4848 -48.4848Z"/></g><g stroke-opacity="1.0" fill="rgb(0,0,0)" stroke="rgb(0,0,0)" stroke-linejoin="miter" stroke-linecap="butt" stroke-width="3.919183588453085" stroke-miterlimit="10.0" fill-opacity="1.0"><path d="M 278.7879,1321.2121 c 0.0000,-26.7774 -21.7074,-48.4848 -48.4848 -48.4848c -26.7774,-0.0000 -48.4848,21.7074 -48.4848 48.4848c -0.0000,26.7774 21.7074,48.4848 48.4848 48.4848c 26.7774,0.0000 48.4848,-21.7074 48.4848 -48.4848Z"/></g><g stroke-opacity="1.0" fill="rgb(0,0,0)" stroke="rgb(0,0,0)" stroke-linejoin="miter" stroke-linecap="butt" stroke-width="3.919183588453085" stroke-miterlimit="10.0" fill-opacity="1.0"><path d="M 218.1818,1866.6667 c 0.0000,-26.7774 -21.7074,-48.4848 -48.4848 -48.4848c -26.7774,-0.0000 -48.4848,21.7074 -48.4848 48.4848c -0.0000,26.7774 21.7074,48.4848 48.4848 48.4848c 26.7774,0.0000 48.4848,-21.7074 48.4848 -48.4848Z"/></g><g stroke-opacity="1.0" fill="rgb(0,0,0)" stroke="rgb(0,0,0)" stroke-linejoin="miter" stroke-linecap="butt" stroke-width="3.919183588453085" stroke-miterlimit="10.0" fill-opacity="1.0"><path d="M 400.0000,230.3030 c 0.0000,-26.7774 -21.7074,-48.4848 -48.4848 -48.4848c -26.7774,-0.0000 -48.4848,21.7074 -48.4848 48.4848c -0.0000,26.7774 21.7074,48.4848 48.4848 48.4848c 26.7774,0.0000 48.4848,-21.7074 48.4848 -48.4848Z"/></g><g stroke-opacity="1.0" fill="rgb(0,0,0)" stroke="rgb(0,0,0)" stroke-linejoin="miter" stroke-linecap="butt" stroke-width="3.919183588453085" stroke-miterlimit="10.0" fill-opacity="1.0"><path d="M 157.5758,836.3636 c 0.0000,-26.7774 -21.7074,-48.4848 -48.4848 -48.4848c -26.7774,-0.0000 -48.4848,21.7074 -48.4848 48.4848c -0.0000,26.7774 21.7074,48.4848 48.4848 48.4848c 26.7774,0.0000 48.4848,-21.7074 48.4848 -48.4848Z"/></g><g stroke-opacity="1.0" fill="rgb(0,0,0)" stroke="rgb(0,0,0)" stroke-linejoin="miter" stroke-linecap="butt" stroke-width="3.919183588453085" stroke-miterlimit="10.0" fill-opacity="1.0"><path d="M 278.7879,1018.1818 c 0.0000,-26.7774 -21.7074,-48.4848 -48.4848 -48.4848c -26.7774,-0.0000 -48.4848,21.7074 -48.4848 48.4848c -0.0000,26.7774 21.7074,48.4848 48.4848 48.4848c 26.7774,0.0000 48.4848,-21.7074 48.4848 -48.4848Z"/></g><g stroke-opacity="1.0" fill="rgb(0,0,0)" stroke="rgb(0,0,0)" stroke-linejoin="miter" stroke-linecap="butt" stroke-width="3.919183588453085" stroke-miterlimit="10.0" fill-opacity="1.0"><path d="M 339.3939,836.3636 c 0.0000,-26.7774 -21.7074,-48.4848 -48.4848 -48.4848c -26.7774,-0.0000 -48.4848,21.7074 -48.4848 48.4848c -0.0000,26.7774 21.7074,48.4848 48.4848 48.4848c 26.7774,0.0000 48.4848,-21.7074 48.4848 -48.4848Z"/></g><g stroke-opacity="1.0" fill="rgb(0,0,0)" stroke="rgb(0,0,0)" stroke-linejoin="miter" stroke-linecap="butt" stroke-width="3.919183588453085" stroke-miterlimit="10.0" fill-opacity="1.0"><path d="M 339.3939,1139.3939 c 0.0000,-26.7774 -21.7074,-48.4848 -48.4848 -48.4848c -26.7774,-0.0000 -48.4848,21.7074 -48.4848 48.4848c -0.0000,26.7774 21.7074,48.4848 48.4848 48.4848c 26.7774,0.0000 48.4848,-21.7074 48.4848 -48.4848Z"/></g><g stroke-opacity="1.0" fill="rgb(0,0,0)" stroke="rgb(0,0,0)" stroke-linejoin="miter" stroke-linecap="butt" stroke-width="3.919183588453085" stroke-miterlimit="10.0" fill-opacity="1.0"><path d="M 400.0000,2351.5152 c 0.0000,-26.7774 -21.7074,-48.4848 -48.4848 -48.4848c -26.7774,-0.0000 -48.4848,21.7074 -48.4848 48.4848c -0.0000,26.7774 21.7074,48.4848 48.4848 48.4848c 26.7774,0.0000 48.4848,-21.7074 48.4848 -48.4848Z"/></g><g stroke-opacity="1.0" fill="rgb(0,0,0)" stroke="rgb(0,0,0)" stroke-linejoin="miter" stroke-linecap="butt" stroke-width="3.919183588453085" stroke-miterlimit="10.0" fill-opacity="1.0"><path d="M 400.0000,1624.2424 c 0.0000,-26.7774 -21.7074,-48.4848 -48.4848 -48.4848c -26.7774,-0.0000 -48.4848,21.7074 -48.4848 48.4848c -0.0000,26.7774 21.7074,48.4848 48.4848 48.4848c 26.7774,0.0000 48.4848,-21.7074 48.4848 -48.4848Z"/></g><g stroke-opacity="1.0" fill="rgb(0,0,0)" stroke="rgb(0,0,0)" stroke-linejoin="miter" stroke-linecap="butt" stroke-width="3.919183588453085" stroke-miterlimit="10.0" fill-opacity="1.0"><path d="M 278.7879,2048.4848 c 0.0000,-26.7774 -21.7074,-48.4848 -48.4848 -48.4848c -26.7774,-0.0000 -48.4848,21.7074 -48.4848 48.4848c -0.0000,26.7774 21.7074,48.4848 48.4848 48.4848c 26.7774,0.0000 48.4848,-21.7074 48.4848 -48.4848Z"/></g><g stroke-opacity="1.0" fill="rgb(0,0,0)" stroke="rgb(0,0,0)" stroke-linejoin="miter" stroke-linecap="butt" stroke-width="3.919183588453085" stroke-miterlimit="10.0" fill-opacity="1.0"><path d="M 400.0000,654.5455 c 0.0000,-26.7774 -21.7074,-48.4848 -48.4848 -48.4848c -26.7774,-0.0000 -48.4848,21.7074 -48.4848 48.4848c -0.0000,26.7774 21.7074,48.4848 48.4848 48.4848c 26.7774,0.0000 48.4848,-21.7074 48.4848 -48.4848Z"/></g><g stroke-opacity="1.0" fill="rgb(0,0,0)" stroke="rgb(0,0,0)" stroke-linejoin="miter" stroke-linecap="butt" stroke-width="3.919183588453085" stroke-miterlimit="10.0" fill-opacity="1.0"><path d="M 218.1818,2351.5152 c 0.0000,-26.7774 -21.7074,-48.4848 -48.4848 -48.4848c -26.7774,-0.0000 -48.4848,21.7074 -48.4848 48.4848c -0.0000,26.7774 21.7074,48.4848 48.4848 48.4848c 26.7774,0.0000 48.4848,-21.7074 48.4848 -48.4848Z"/></g></svg>